<?xml version="1.0" standalone="no"?>
<!DOCTYPE svg PUBLIC "-//W3C//DTD SVG 20010904//EN"
 "http://www.w3.org/TR/2001/REC-SVG-20010904/DTD/svg10.dtd">
<svg version="1.0" xmlns="http://www.w3.org/2000/svg"
 width="284.000000pt" height="284.000000pt" viewBox="0 0 284.000000 284.000000"
 preserveAspectRatio="xMidYMid meet">
<metadata>
Created by potrace 1.10, written by Peter Selinger 2001-2011
</metadata>
<g transform="translate(0.000000,284.000000) scale(0.100000,-0.100000)"
fill="#000000" stroke="none">
<path d="M423 1743 c-34 -7 -71 -47 -78 -86 -13 -69 39 -127 122 -134 56 -5
68 2 77 42 5 26 5 28 -6 10 -26 -45 -68 -47 -109 -6 -55 56 -31 161 37 161 34
0 64 -17 65 -38 1 -9 4 -3 8 13 6 26 3 31 -19 36 -29 8 -65 8 -97 2z"/>
<path d="M1755 1736 c-46 -21 -68 -50 -68 -95 0 -72 38 -108 121 -118 54 -6
83 12 81 50 0 15 -2 17 -6 7 -24 -67 -124 -41 -139 35 -13 69 15 115 69 115
37 0 49 -7 65 -35 10 -18 11 -17 12 11 0 27 -4 32 -31 38 -45 9 -70 7 -104 -8z"/>
<path d="M591 1706 c12 -13 12 -159 -1 -172 -7 -7 2 -9 25 -6 l35 4 0 88 c0
50 4 90 10 92 6 2 -10 3 -34 3 -29 0 -41 -3 -35 -9z"/>
<path d="M694 1711 c-2 -2 -4 -14 -4 -25 0 -15 3 -17 8 -8 5 7 21 15 35 18
l27 4 0 -78 c0 -43 -4 -82 -9 -87 -6 -6 6 -10 34 -10 28 0 41 4 35 10 -6 5
-10 44 -10 87 l0 78 28 -6 c15 -4 30 -12 34 -18 4 -6 8 0 8 14 0 25 -1 25 -91
25 -50 0 -93 -2 -95 -4z"/>
<path d="M916 1695 c38 -38 66 -103 59 -136 -6 -27 -4 -29 22 -29 27 0 29 2
25 35 -5 39 33 113 69 139 21 14 20 15 -14 13 -19 -1 -33 -5 -31 -9 3 -4 -4
-24 -14 -45 l-20 -37 -21 34 c-12 19 -19 40 -17 45 2 6 -15 11 -39 11 l-41 1
22 -22z"/>
<path d="M1243 1705 c-86 -37 -64 -163 32 -181 39 -7 99 16 115 46 6 11 10 40
8 63 -2 34 -9 45 -37 64 -39 26 -72 28 -118 8z m91 -27 c18 -26 21 -90 6 -119
-14 -25 -52 -24 -75 1 -25 28 -32 102 -10 123 23 24 61 21 79 -5z"/>
<path d="M1446 1707 c16 -9 20 -157 5 -172 -6 -6 6 -10 33 -10 42 0 43 1 29
22 -30 46 4 95 41 58 15 -15 16 -15 16 7 0 20 -5 23 -32 23 -30 0 -33 3 -33
30 0 27 3 30 30 26 17 -1 33 -8 36 -13 4 -6 6 0 6 13 0 23 -3 24 -73 24 -41 0
-66 -3 -58 -8z"/>
<path d="M2002 1698 c-6 -14 -27 -58 -47 -97 -33 -66 -34 -71 -15 -71 13 0 20
7 20 20 0 17 7 20 39 20 30 0 41 -5 46 -19 4 -12 17 -20 40 -23 28 -3 32 -2
22 10 -6 8 -30 53 -53 101 -40 83 -42 85 -52 59z m17 -93 c1 -6 -8 -11 -19
-11 -11 0 -20 1 -20 2 0 2 5 15 11 31 10 26 12 27 19 8 5 -11 9 -25 9 -30z"/>
<path d="M2173 1705 c-36 -26 -31 -70 12 -97 36 -24 49 -43 39 -59 -10 -17
-53 -9 -68 13 l-16 22 0 -21 c0 -43 61 -56 104 -22 36 28 33 52 -14 92 -22 19
-40 41 -40 50 0 23 46 22 60 0 9 -16 10 -15 8 7 -2 20 -9 26 -33 28 -16 1 -40
-4 -52 -13z"/>
<path d="M2346 1638 c-21 -46 -44 -90 -51 -98 -12 -13 -9 -15 20 -15 25 0 31
3 23 12 -15 19 0 33 37 33 25 0 35 -5 40 -20 4 -14 15 -20 35 -20 l29 0 -43
90 c-24 50 -45 92 -48 95 -3 3 -22 -32 -42 -77z m42 -17 c9 -27 8 -29 -14 -27
-13 0 -24 2 -24 3 0 5 23 53 26 53 1 0 7 -13 12 -29z"/>
<path d="M350 1460 c0 -7 367 -10 1080 -10 713 0 1080 3 1080 10 0 7 -367 10
-1080 10 -713 0 -1080 -3 -1080 -10z"/>
<path d="M679 1299 c-28 -65 -51 -104 -64 -110 -14 -5 -5 -8 30 -7 28 0 42 2
33 5 -21 5 -21 8 -8 34 16 29 78 27 89 -3 5 -13 7 -26 4 -30 -2 -5 17 -7 44
-7 26 1 41 3 31 6 -10 2 -34 45 -59 104 -23 55 -46 102 -50 104 -3 3 -26 -41
-50 -96z m39 -37 c-27 -5 -30 1 -17 34 l11 29 13 -30 c12 -27 12 -30 -7 -33z"/>
<path d="M863 1359 c14 -8 17 -24 17 -89 0 -53 -4 -80 -12 -83 -7 -3 10 -5 37
-5 28 0 42 2 33 5 -13 3 -18 15 -18 39 0 43 12 43 41 2 33 -47 35 -48 124 -48
59 1 75 3 63 11 -12 7 -18 22 -18 47 l1 37 22 -30 c45 -61 53 -65 120 -64 34
0 56 3 50 6 -10 3 -10 10 -2 24 15 29 73 23 77 -8 3 -22 8 -23 85 -23 61 1 77
3 65 11 -13 7 -18 23 -18 54 0 25 3 45 6 45 3 0 33 -25 67 -55 33 -30 64 -55
69 -55 4 0 8 38 8 85 0 69 3 86 18 94 13 8 7 10 -28 10 -35 0 -41 -2 -27 -10
13 -7 17 -23 17 -60 l0 -51 -72 63 -73 62 -3 -91 c-3 -91 -3 -92 -28 -92 -22
0 -31 11 -67 90 -22 50 -43 90 -46 90 -3 -1 -21 -35 -40 -78 -52 -116 -53
-117 -112 -53 l-50 53 24 24 c13 13 37 30 53 39 l29 15 -42 0 c-30 0 -41 -4
-37 -13 2 -7 -11 -28 -31 -47 l-35 -34 0 37 c0 24 6 39 18 46 13 8 4 10 -38
10 -30 -1 -47 -3 -37 -6 14 -4 17 -17 17 -89 0 -82 -1 -84 -24 -84 -34 0 -84
66 -68 89 45 61 13 91 -96 91 -44 -1 -53 -3 -39 -11z m95 -18 c22 -13 11 -66
-13 -66 -16 0 -21 8 -23 38 -3 38 8 46 36 28z m422 -83 c0 -4 -9 -8 -21 -8
-15 0 -19 4 -15 16 3 9 6 21 6 27 1 13 30 -22 30 -35z"/>
<path d="M1750 1350 c-28 -28 -19 -55 32 -100 36 -31 39 -37 25 -49 -21 -17
-56 -5 -67 22 -8 19 -9 18 -9 -10 -1 -32 0 -33 40 -33 56 0 79 14 79 50 0 21
-10 37 -42 63 -36 30 -40 37 -29 51 18 21 27 20 52 -5 l21 -21 -4 24 c-4 33
-68 38 -98 8z"/>
<path d="M1929 1282 c-23 -50 -49 -93 -58 -95 -9 -3 4 -5 29 -6 30 0 40 2 31
8 -23 15 -5 41 28 41 29 0 58 -29 44 -44 -3 -3 12 -6 35 -6 40 0 41 1 26 18
-8 10 -30 51 -48 91 -18 39 -36 74 -39 77 -3 4 -25 -34 -48 -84z m41 9 c0 -5
3 -16 6 -25 4 -12 0 -16 -16 -16 -16 0 -20 4 -16 16 3 9 6 20 6 25 0 5 5 9 10
9 6 0 10 -4 10 -9z"/>
<path d="M2126 1354 c-32 -32 -17 -73 40 -111 28 -18 31 -38 8 -47 -25 -10
-33 -7 -55 15 l-21 21 4 -24 c3 -20 9 -23 50 -26 41 -3 49 0 63 22 22 33 12
60 -30 86 -39 24 -49 44 -30 60 15 13 49 0 58 -22 3 -7 6 -1 6 15 1 25 -2 27
-38 27 -23 0 -46 -7 -55 -16z"/>
</g>
</svg>
