<?xml version="1.0" standalone="no"?>
<!DOCTYPE svg PUBLIC "-//W3C//DTD SVG 20010904//EN"
 "http://www.w3.org/TR/2001/REC-SVG-20010904/DTD/svg10.dtd">
<svg version="1.0" xmlns="http://www.w3.org/2000/svg"
 width="300.000000pt" height="300.000000pt" viewBox="0 0 300.000000 300.000000"
 preserveAspectRatio="xMidYMid meet">
<metadata>
Created by potrace 1.10, written by Peter Selinger 2001-2011
</metadata>
<g transform="translate(0.000000,300.000000) scale(0.100000,-0.100000)"
fill="#000000" stroke="none">
<path d="M2200 2230 c-46 -46 -40 -54 275 -370 l295 -295 -1359 3 c-1309 2
-1359 1 -1381 -16 -32 -26 -32 -78 -1 -104 22 -17 76 -18 1379 -18 l1357 0
-293 -293 c-307 -308 -312 -314 -276 -365 10 -15 25 -22 47 -22 29 0 69 37
391 359 321 321 359 363 359 391 0 28 -38 70 -359 391 -384 384 -387 386 -434
339z m417 -362 c194 -194 353 -360 353 -368 0 -11 -592 -615 -702 -716 -4 -3
-19 -4 -33 0 -55 14 -34 40 266 342 266 267 290 294 280 313 l-12 21 -1354 0
-1355 0 -21 21 c-51 51 -104 49 1355 49 1207 0 1354 2 1374 16 12 8 22 20 22
27 0 6 -130 142 -290 302 -159 160 -290 297 -290 306 0 19 20 39 39 39 9 0
174 -159 368 -352z"/>
</g>
</svg>
