<?xml version="1.0" standalone="no"?>
<!DOCTYPE svg PUBLIC "-//W3C//DTD SVG 20010904//EN"
 "http://www.w3.org/TR/2001/REC-SVG-20010904/DTD/svg10.dtd">
<svg version="1.0" xmlns="http://www.w3.org/2000/svg"
 width="300.000000pt" height="300.000000pt" viewBox="0 0 300.000000 300.000000"
 preserveAspectRatio="xMidYMid meet">
<metadata>
Created by potrace 1.10, written by Peter Selinger 2001-2011
</metadata>
<g transform="translate(0.000000,300.000000) scale(0.100000,-0.100000)"
fill="#000000" stroke="none">
<path d="M1200 2969 c-298 -62 -532 -191 -755 -414 -226 -225 -353 -460 -414
-762 -18 -88 -29 -265 -16 -252 2 3 12 54 20 115 33 227 69 344 157 516 170
333 510 618 863 725 120 36 156 43 303 63 129 17 142 29 32 29 -56 0 -134 -9
-190 -20z"/>
<path d="M1538 2980 c12 -5 62 -14 110 -20 114 -14 123 -16 214 -40 286 -75
523 -215 716 -425 214 -232 322 -461 379 -802 l28 -168 3 82 c6 184 -90 491
-216 687 -101 157 -285 349 -422 440 -175 117 -371 200 -561 237 -102 19 -295
26 -251 9z"/>
<path d="M1285 2814 c-486 -85 -893 -436 -1048 -904 -49 -147 -61 -233 -61
-410 0 -232 33 -373 134 -585 126 -262 370 -503 633 -624 185 -85 350 -121
557 -121 220 0 389 39 585 136 362 178 631 528 718 934 25 116 29 364 8 480
-73 406 -342 774 -703 960 -118 61 -272 113 -397 134 -115 19 -316 19 -426 0z
m467 -39 c264 -55 471 -167 663 -360 194 -193 302 -393 361 -666 14 -62 18
-127 18 -249 0 -122 -4 -187 -18 -249 -59 -273 -167 -473 -361 -666 -193 -194
-397 -304 -668 -362 -114 -24 -380 -24 -494 0 -271 58 -475 168 -668 362 -194
193 -304 397 -362 668 -24 114 -24 380 0 494 119 557 552 964 1109 1043 91 13
330 4 420 -15z"/>
<path d="M1451 2386 c-50 -28 -50 -31 -50 -486 0 -315 3 -431 12 -447 12 -21
503 -419 545 -442 80 -43 170 46 132 131 -6 13 -119 109 -250 213 l-239 190
-1 387 c0 278 -3 394 -12 413 -22 48 -88 68 -137 41z m101 -43 c17 -15 18 -41
18 -408 l0 -391 33 -31 c17 -18 127 -108 242 -200 207 -167 210 -170 213 -210
3 -36 -1 -44 -22 -59 -16 -10 -35 -14 -50 -10 -23 6 -446 335 -518 404 l-38
36 0 425 c0 381 2 426 17 443 20 23 80 24 105 1z"/>
<path d="M2978 1440 c-4 -19 -17 -95 -28 -169 -12 -73 -35 -174 -51 -225 -110
-337 -346 -630 -656 -812 -170 -100 -339 -157 -577 -194 -71 -10 -131 -22
-134 -25 -13 -13 167 -3 257 14 223 44 431 138 621 281 98 75 262 246 324 340
159 237 261 537 254 743 -2 64 -5 74 -10 47z"/>
<path d="M11 1387 c-3 -186 79 -447 207 -662 108 -182 297 -374 488 -497 193
-124 493 -219 686 -217 102 1 80 9 -111 39 -317 50 -573 177 -799 394 -137
132 -219 243 -297 401 -76 155 -110 259 -136 420 -32 200 -36 214 -38 122z"/>
</g>
</svg>
